<svg xmlns="http://www.w3.org/2000/svg" viewBox="0 0 24 24" width="24" height="24">
  <path fill="none" d="M0 0h24v24H0z"/>
  <path d="M6 3h12a3 3 0 0 1 3 3v12a3 3 0 0 1-3 3H6a3 3 0 0 1-3-3V6a3 3 0 0 1 3-3zm2 2a1 1 0 0 0-1 1v1h10V6a1 1 0 0 0-1-1H8zm8 3v2h2V8h-2zM8 8v2h2V8H8zm4 0v2h2V8h-2zm-4 4v2h2v-2H8zm4 0v2h2v-2h-2zm-4 4v2h2v-2H8zm8 0v-1h-2v2h1a1 1 0 0 0 1-1zm0-4v-2h-2v2h2a1 1 0 0 0 1-1zm-8 4v-2H8v2h2a1 1 0 0 0 1-1zm4-4v-2h-2v2h2a1 1 0 0 0 1-1zm-4-4v2H8V6h2a1 1 0 0 0 1-1zm4 0v2h2V6h-2a1 1 0 0 0-1-1z"/>
</svg>
